<svg width="40" height="40" viewBox="0 0 40 40" fill="#101A41" xmlns="http://www.w3.org/2000/svg">
<path d="M15.5 35C15.1022 35 14.7206 34.842 14.4393 34.5607C14.158 34.2794 14 33.8978 14 33.5C14 33.1022 14.158 32.7206 14.4393 32.4393C14.7206 32.158 15.1022 32 15.5 32H28C29.0609 32 30.0783 31.5786 30.8284 30.8284C31.5786 30.0783 32 29.0609 32 28V12C32 10.9391 31.5786 9.92172 30.8284 9.17157C30.0783 8.42143 29.0609 8 28 8H15.5C15.1022 8 14.7206 7.84196 14.4393 7.56066C14.158 7.27936 14 6.89782 14 6.5C14 6.10218 14.158 5.72064 14.4393 5.43934C14.7206 5.15804 15.1022 5 15.5 5H28C29.8565 5 31.637 5.7375 32.9497 7.05025C34.2625 8.36301 35 10.1435 35 12V28C35 29.8565 34.2625 31.637 32.9497 32.9497C31.637 34.2625 29.8565 35 28 35H15.5Z"  />
<path d="M15.482 12.398C15.6267 12.2643 15.7963 12.1604 15.9812 12.0922C16.1661 12.0241 16.3625 11.993 16.5594 12.0008C16.7563 12.0086 16.9497 12.0551 17.1286 12.1377C17.3075 12.2203 17.4683 12.3373 17.602 12.482L23.602 18.982C23.8581 19.2592 24.0003 19.6226 24.0003 20C24.0003 20.3774 23.8581 20.7409 23.602 21.018L17.602 27.518C17.4682 27.6626 17.3072 27.7794 17.1282 27.8618C16.9493 27.9441 16.7558 27.9905 16.559 27.9981C16.3621 28.0057 16.1657 27.9745 15.9809 27.9062C15.7961 27.8379 15.6266 27.7338 15.482 27.6C15.3374 27.4662 15.2206 27.3052 15.1382 27.1262C15.0559 26.9473 15.0096 26.7538 15.0019 26.557C14.9866 26.1594 15.1297 25.772 15.4 25.48L19.076 21.498H3.5C3.10218 21.498 2.72064 21.34 2.43934 21.0587C2.15804 20.7774 2 20.3958 2 19.998C2 19.6002 2.15804 19.2187 2.43934 18.9373C2.72064 18.656 3.10218 18.498 3.5 18.498H19.074L15.398 14.518C15.2643 14.3733 15.1604 14.2037 15.0922 14.0188C15.0241 13.834 14.993 13.6375 15.0008 13.4406C15.0086 13.2437 15.0551 13.0503 15.1377 12.8714C15.2203 12.6925 15.3373 12.5317 15.482 12.398Z" />
</svg>
